# xmcd CD database file
#
# Track frame offsets:
#	150
#	30202
#	54795
#	79255
#	107870
#	132375
#	162200
#	189325
#	216387
#	234427
#
# Disc length: 3505 seconds
#
# Revision: 7
# Processed by: cddbd v1.5.2PL0 Copyright (c) Steve Scherf et al.
# Submitted via: CDex 1.70beta3
#
DISCID=7b0daf0a
DTITLE=伊藤賢治 - Romancing Sa・Ga 2 Eternal Romance
DYEAR=1993
DGENRE=Game
TTITLE0=Preface to the Saga ～Prologue～
TTITLE1=Colors
TTITLE2=Aspirants
TTITLE3=Mermaid Tears
TTITLE4=Nereid Song
TTITLE5=Myriad Mystique
TTITLE6=Exotic Dusk
TTITLE7=Bitter Prophecy
TTITLE8=Embracing You in My Arms
TTITLE9=Preciousness ～Epilogue～
EXTD=YEAR: 1993
EXTT0=
EXTT1=
EXTT2=
EXTT3=
EXTT4=
EXTT5=
EXTT6=
EXTT7=
EXTT8=
EXTT9=FLOWERS, ORCHARD AND BEES\nRIVERS, STREAMS AND SEAS\nSUNSHINE, BLUE SKY AND BREEZE\nMOUNTAINS AND TREES\n\nSAD, HAPPY, BITTER OR BLUE\nBELIEVING IN YOURSELF FOR BEING TRUE\n\nLISTEN TO HEART BEAT\nLISTEN TO WORLD SING\n\nFEEL THE LOVE THAT WORLD IS
EXTT9=GIVINGTO YOU\n\n
PLAYORDER=
